# xmcd
#
# Track frame offsets:
#  150
#  22352
#  48927
#  66827
#
# Disc length: 1157 seconds
#
# Revision: 0
# Processed by: cddbd v1.5.1PL2 Copyright (c) Steve Scherf et al.
# Submitted via: Collectorz.com_Music_Collector 6.9
#
DISCID=34048304
DTITLE=Menlo Park - Greetings From Lambeth
DYEAR=2002
DGENRE=
TTITLE0=Porno Rodeo
TTITLE1=Dead Neighbour
TTITLE2=Lips That Touch Liqour (Must Never Touch Mine)
TTITLE3=Big Black Smoke
EXTD=
EXTT0=
EXTT1=
EXTT2=
EXTT3=
PLAYORDER=
